<?xml version="1.0" encoding="UTF-8"?>
<svg width="16px" height="16px" viewBox="0 0 16 16" version="1.1" xmlns="http://www.w3.org/2000/svg" xmlns:xlink="http://www.w3.org/1999/xlink">
    <title>icons/Major/close</title>
    <g id="Page-1" stroke="none" stroke-width="1" fill="none" fill-rule="evenodd">
        <g id="Anamnézis-v2---űrlap-mező-modal---új-és-szerkesztés" transform="translate(-552.000000, -12.000000)">
            <g id="Icons/Major/Close" transform="translate(550.000000, 10.000000)">
                <rect id="Rectangle" x="0" y="0" width="20" height="20"></rect>
                <path d="M2.29289322,2.29289322 C2.68341751,1.90236893 3.31658249,1.90236893 3.70710678,2.29289322 L3.70710678,2.29289322 L10,8.585 L16.2928932,2.29289322 C16.6533772,1.93240926 17.2206082,1.90467972 17.6128994,2.20970461 L17.7071068,2.29289322 C18.0976311,2.68341751 18.0976311,3.31658249 17.7071068,3.70710678 L17.7071068,3.70710678 L11.415,10 L17.7071068,16.2928932 C18.0675907,16.6533772 18.0953203,17.2206082 17.7902954,17.6128994 L17.7071068,17.7071068 C17.3165825,18.0976311 16.6834175,18.0976311 16.2928932,17.7071068 L16.2928932,17.7071068 L10,11.415 L3.70710678,17.7071068 C3.34662282,18.0675907 2.77939176,18.0953203 2.38710056,17.7902954 L2.29289322,17.7071068 C1.90236893,17.3165825 1.90236893,16.6834175 2.29289322,16.2928932 L2.29289322,16.2928932 L8.585,10 L2.29289322,3.70710678 C1.93240926,3.34662282 1.90467972,2.77939176 2.20970461,2.38710056 Z" id="Combined-Shape" fill="#FFFFFF" fill-rule="nonzero"></path>
            </g>
        </g>
    </g>
</svg>